<?xml version="1.0" encoding="UTF-8" standalone="no"?>
<!-- Created with Inkscape (http://www.inkscape.org/) -->

<svg
   width="154.59673mm"
   height="154.59673mm"
   viewBox="0 0 154.59673 154.59673"
   version="1.1"
   id="svg1"
   xml:space="preserve"
   inkscape:version="1.4.2 (ebf0e940d0, 2025-05-08)"
   sodipodi:docname="icon.svg"
   inkscape:export-filename="icon192.png"
   inkscape:export-xdpi="31.545298"
   inkscape:export-ydpi="31.545298"
   xmlns:inkscape="http://www.inkscape.org/namespaces/inkscape"
   xmlns:sodipodi="http://sodipodi.sourceforge.net/DTD/sodipodi-0.dtd"
   xmlns="http://www.w3.org/2000/svg"
   xmlns:svg="http://www.w3.org/2000/svg"><sodipodi:namedview
     id="namedview1"
     pagecolor="#ffffff"
     bordercolor="#000000"
     borderopacity="0.25"
     inkscape:showpageshadow="2"
     inkscape:pageopacity="0.0"
     inkscape:pagecheckerboard="0"
     inkscape:deskcolor="#d1d1d1"
     inkscape:document-units="mm"
     showguides="true"
     inkscape:zoom="0.52159442"
     inkscape:cx="363.3091"
     inkscape:cy="276.07657"
     inkscape:window-width="1025"
     inkscape:window-height="1217"
     inkscape:window-x="0"
     inkscape:window-y="0"
     inkscape:window-maximized="0"
     inkscape:current-layer="layer1" /><defs
     id="defs1" /><g
     inkscape:label="Layer 1"
     inkscape:groupmode="layer"
     id="layer1"
     transform="translate(-27.701425,-71.201622)"><path
       id="rect6"
       style="opacity:1;fill:#008000;fill-opacity:1;stroke:none;stroke-width:6.49469;stroke-linecap:round;stroke-dasharray:none"
       d="m 39.670834,71.201622 c -6.630795,0 -11.969409,4.776718 -11.969409,10.71022 V 215.08811 c 0,5.93351 5.338614,10.71023 11.969409,10.71023 H 170.3293 c 6.63079,0 11.96885,-4.77672 11.96885,-10.71023 V 81.911842 c 0,-5.933502 -5.33806,-10.71022 -11.96885,-10.71022 z"
       sodipodi:nodetypes="sssssssss" /><path
       style="fill:#ffffff;stroke-width:0.917853"
       d="m 118.83002,206.32498 c -9.4869,-0.99497 -22.349906,-8.33434 -33.14884,-18.91406 -6.608486,-6.47433 -11.227736,-12.06999 -15.160415,-18.36501 -0.250326,-0.4007 -0.957678,-1.52185 -1.571887,-2.49143 -1.472025,-2.32374 -5.258085,-9.90534 -6.363961,-12.74389 -1.042644,-2.67623 -4.034165,-11.31188 -4.39679,-12.69227 -0.140358,-0.53427 -0.588014,-2.22814 -0.994797,-3.76416 -1.70962,-6.45545 -3.20237,-15.69231 -3.203251,-19.82106 -9.18e-4,-4.67674 1.033585,-9.39946 2.733448,-12.4778 0.909363,-1.64678 3.033522,-4.51749 3.973385,-5.369845 1.666225,-1.511088 4.47613,-3.436544 6.33347,-4.339938 2.239111,-1.089091 2.629492,-1.165372 2.817606,-0.55057 0.241387,0.788941 3.064335,7.099813 6.490634,14.510213 0.370537,0.80139 1.5647,3.47881 2.653696,5.94978 1.088996,2.47099 2.766289,6.23204 3.727309,8.3579 0.961019,2.12585 1.77878,3.94144 1.817248,4.03465 0.03846,0.0932 -0.617229,0.4218 -1.457092,0.7302 -0.839863,0.3084 -2.291998,0.90811 -3.226969,1.33269 -0.934961,0.42459 -2.341562,1.03236 -3.125766,1.3506 -0.784214,0.31824 -1.481295,0.72315 -1.549088,0.8998 -0.238954,0.62271 1.85711,6.9514 3.998167,12.07173 6.364668,15.22106 16.177837,27.60788 27.257403,34.40606 0.58586,0.35947 0.6215,0.33369 2.11245,-1.52812 0.8341,-1.04157 1.69864,-2.1717 1.92121,-2.51139 0.22258,-0.33968 0.47681,-0.6176 0.56497,-0.6176 0.0881,0 1.79677,1.2863 3.79693,2.85847 2.00016,1.57216 4.01914,3.12787 4.48662,3.45713 0.91105,0.64168 1.33913,0.97487 2.52386,1.96438 0.77167,0.64451 4.02935,3.15736 7.06866,5.45249 0.93496,0.70603 2.8474,2.18682 4.24985,3.29063 1.40245,1.10381 3.15096,2.47056 3.88558,3.03722 0.73461,0.56665 1.71524,1.35208 2.17916,1.74541 l 0.84349,0.71514 -1.01717,1.31845 c -1.43244,1.85669 -4.31384,4.59345 -5.89106,5.59532 -4.01382,2.54963 -9.11235,3.6559 -14.32806,3.10888 z m 22.2174,-14.93833 c -0.66605,-0.46822 -2.85023,-2.1121 -4.85373,-3.65308 -2.00351,-1.54099 -5.0634,-3.88353 -6.79977,-5.20565 -2.71008,-2.06356 -8.75886,-6.71468 -12.53108,-9.63562 -1.41028,-1.09202 -1.91841,-1.95027 -1.91841,-3.24032 0,-0.83497 0.14907,-1.16797 0.82569,-1.8446 0.69821,-0.69822 0.99709,-0.82569 1.93596,-0.82569 0.99385,0 1.33378,0.16955 3.24202,1.61699 1.17247,0.88935 2.62353,2.01894 3.22458,2.51021 0.60105,0.49127 2.84133,2.21813 4.9784,3.83746 2.13706,1.61933 4.65055,3.53219 5.58552,4.2508 0.93496,0.7186 3.73009,2.85101 6.21138,4.73866 2.5057,1.90621 4.63808,3.71 4.79626,4.05718 0.90429,1.98469 -0.58167,4.24496 -2.79074,4.24496 -0.40238,0 -1.20504,-0.35849 -1.90608,-0.8513 z M 88.716795,124.78638 c -1.146921,-0.57295 -1.322415,-0.92916 -10.079658,-20.45962 -1.107968,-2.47099 -2.585564,-5.694805 -3.283555,-7.16404 -0.69799,-1.469233 -1.31565,-3.05382 -1.372566,-3.521304 -0.206508,-1.69601 1.680074,-3.400399 3.386188,-3.059175 1.811961,0.362391 2.096019,0.819053 6.13258,9.858939 1.103369,2.47099 2.280846,5.09375 2.616624,5.82837 0.835466,1.82782 4.888484,10.85441 5.932845,13.21318 1.26962,2.86753 0.934255,4.54642 -1.078312,5.39825 -1.007234,0.42632 -1.230097,0.41696 -2.254146,-0.0946 z"
       id="path7"
       sodipodi:nodetypes="ssssssscsssssssssssssssssssssssscssssssssssssssssssssssssssss" /><path
       id="path10"
       style="baseline-shift:baseline;display:inline;overflow:visible;opacity:1;vector-effect:none;fill:#ffffff;stroke-width:0.917853;stroke-linecap:round;enable-background:accumulate;stop-color:#000000;stop-opacity:1"
       d="m 148.33372,94.706083 c -1.8376,8.9e-5 -3.59992,0.730038 -4.8994,2.029316 l -24.89724,24.897381 c -2.70651,2.7063 -2.70651,7.09429 0,9.80059 2.7063,2.70651 7.09429,2.70651 9.80059,0 l 24.89724,-24.89739 c 2.70651,-2.70629 2.70651,-7.094285 0,-9.800581 -1.29991,-1.299719 -3.06297,-2.029705 -4.90119,-2.029316 z m -21.76901,-0.745131 a 4.5892645,4.5892645 0 0 0 -4.58927,4.589265 4.5892645,4.5892645 0 0 0 4.58927,4.589263 h 20.26626 v 20.26626 a 4.5892645,4.5892645 0 0 0 4.58927,4.58927 4.5892645,4.5892645 0 0 0 4.58926,-4.58927 V 98.550217 a 4.5892645,4.5892645 0 0 0 -4.58926,-4.589265 z" /><g
       id="g18"
       transform="matrix(0.64902,0.64902,-0.64902,0.64902,70.376681,-110.33792)"><path
         style="fill:none;fill-opacity:1;stroke:#ffffff;stroke-width:3.4;stroke-linecap:round;stroke-dasharray:none"
         d="m 214.69097,155.36294 1e-4,22.83834"
         id="path12"
         sodipodi:nodetypes="cc" /><path
         style="fill:none;fill-opacity:1;stroke:#ffffff;stroke-width:3.4;stroke-linecap:round;stroke-dasharray:none"
         d="m 220.47107,155.36294 1e-4,22.83834"
         id="path13"
         sodipodi:nodetypes="cc" /><path
         style="fill:none;fill-opacity:1;stroke:#ffffff;stroke-width:3.4;stroke-linecap:round;stroke-dasharray:none"
         d="m 226.25118,155.36294 1e-4,22.83834"
         id="path14"
         sodipodi:nodetypes="cc" /><path
         style="fill:none;fill-opacity:1;stroke:#ffffff;stroke-width:3.4;stroke-linecap:round;stroke-dasharray:none"
         d="m 232.03128,155.36294 1e-4,22.83834"
         id="path15"
         sodipodi:nodetypes="cc" /></g></g></svg>
